<svg xmlns="http://www.w3.org/2000/svg" xmlns:xlink="http://www.w3.org/1999/xlink" id="body_1" preserveAspectRatio="xMinYMin meet" viewBox="0 0 992 1403"><g transform="matrix(1.333333 0 0 1.333333 0 0)"><g><g clip-path="url(#1)"><g clip-path="url(#2)"></g><path transform="matrix(1 0 0 -1 0 1052)" d="M125.25 502.5L612.15 502.5L612.15 502.5L612.15 879.6L612.15 879.6L125.25 879.6z" stroke="none" fill="#FFFFFF" fill-rule="evenodd" /><g clip-path="url(#3)"></g><g clip-path="url(#4)"></g><g clip-path="url(#5)"></g><g clip-path="url(#6)"></g><g clip-path="url(#7)"></g><g clip-path="url(#8)"></g><g clip-path="url(#9)"></g><g clip-path="url(#10)"></g><g clip-path="url(#11)"></g><g clip-path="url(#12)"></g><g clip-path="url(#13)"></g><g clip-path="url(#14)"></g><g clip-path="url(#15)"></g><g clip-path="url(#16)"></g><g clip-path="url(#17)"></g><g clip-path="url(#18)"></g><g clip-path="url(#19)"></g><g clip-path="url(#20)"></g><g clip-path="url(#21)"></g><g clip-path="url(#22)"></g><g clip-path="url(#23)"></g><g clip-path="url(#24)"></g><g clip-path="url(#25)"></g><g clip-path="url(#26)"></g><g clip-path="url(#27)"></g><g clip-path="url(#28)"></g><g clip-path="url(#29)"></g><g clip-path="url(#30)"></g><g clip-path="url(#31)"></g><g clip-path="url(#32)"></g><g clip-path="url(#33)"></g><g clip-path="url(#34)"></g><g clip-path="url(#35)"></g><g clip-path="url(#36)"></g><g clip-path="url(#37)"></g><g clip-path="url(#38)"></g><g clip-path="url(#39)"></g><g clip-path="url(#40)"></g><g clip-path="url(#41)"></g><g clip-path="url(#42)"></g><g clip-path="url(#43)"></g><g clip-path="url(#44)"></g><g clip-path="url(#45)"></g><g clip-path="url(#46)"></g><g clip-path="url(#47)"></g><g clip-path="url(#48)"></g><g clip-path="url(#49)"></g><g clip-path="url(#50)"></g><g clip-path="url(#51)"></g><g clip-path="url(#52)"></g><g clip-path="url(#53)"></g><g clip-path="url(#54)"></g><g clip-path="url(#55)"></g><g clip-path="url(#56)"></g><g clip-path="url(#57)"></g><g clip-path="url(#58)"></g><g clip-path="url(#59)"></g><g clip-path="url(#60)"></g><g clip-path="url(#61)"></g><g clip-path="url(#62)"></g><g clip-path="url(#63)"></g></g></g></g><defs><clipPath id="1"><path d="M0 1052L0 -0.09997559L0 -0.09997559L744 -0.09997559L744 -0.09997559L744 1052L744 1052L0 1052z" /></clipPath><clipPath id="2"><path d="M122.27 594.43L621.87 594.43L621.87 594.43L621.87 57.5L621.87 57.5L122.27 57.5z" /></clipPath><clipPath id="3"><path d="M121.35 594.35L621.75 594.35L621.75 594.35L621.75 56.59998L621.75 56.59998L121.35 56.59998z" /></clipPath><clipPath id="4"><path d="M121.35 594.35L621.75 594.35L621.75 594.35L621.75 56.59998L621.75 56.59998L121.35 56.59998z" /></clipPath><clipPath id="5"><path d="M121.35 594.35L621.75 594.35L621.75 594.35L621.75 56.59998L621.75 56.59998L121.35 56.59998z" /></clipPath><clipPath id="6"><path d="M121.35 594.35L621.75 594.35L621.75 594.35L621.75 56.59998L621.75 56.59998L121.35 56.59998z" /></clipPath><clipPath id="7"><path d="M121.35 594.35L621.75 594.35L621.75 594.35L621.75 56.59998L621.75 56.59998L121.35 56.59998z" /></clipPath><clipPath id="8"><path d="M121.35 594.35L621.75 594.35L621.75 594.35L621.75 56.59998L621.75 56.59998L121.35 56.59998z" /></clipPath><clipPath id="9"><path d="M121.35 594.35L621.75 594.35L621.75 594.35L621.75 56.59998L621.75 56.59998L121.35 56.59998z" /></clipPath><clipPath id="10"><path d="M121.35 594.35L621.75 594.35L621.75 594.35L621.75 56.59998L621.75 56.59998L121.35 56.59998z" /></clipPath><clipPath id="11"><path d="M121.35 594.35L621.75 594.35L621.75 594.35L621.75 56.59998L621.75 56.59998L121.35 56.59998z" /></clipPath><clipPath id="12"><path d="M121.35 594.35L621.75 594.35L621.75 594.35L621.75 56.59998L621.75 56.59998L121.35 56.59998z" /></clipPath><clipPath id="13"><path d="M121.35 594.35L621.75 594.35L621.75 594.35L621.75 56.59998L621.75 56.59998L121.35 56.59998z" /></clipPath><clipPath id="14"><path d="M121.35 594.35L621.75 594.35L621.75 594.35L621.75 56.59998L621.75 56.59998L121.35 56.59998z" /></clipPath><clipPath id="15"><path d="M121.35 594.35L621.75 594.35L621.75 594.35L621.75 56.59998L621.75 56.59998L121.35 56.59998z" /></clipPath><clipPath id="16"><path d="M121.35 594.35L621.75 594.35L621.75 594.35L621.75 56.59998L621.75 56.59998L121.35 56.59998z" /></clipPath><clipPath id="17"><path d="M121.35 594.35L621.75 594.35L621.75 594.35L621.75 56.59998L621.75 56.59998L121.35 56.59998z" /></clipPath><clipPath id="18"><path d="M121.35 594.35L621.75 594.35L621.75 594.35L621.75 56.59998L621.75 56.59998L121.35 56.59998z" /></clipPath><clipPath id="19"><path d="M121.35 594.35L621.75 594.35L621.75 594.35L621.75 56.59998L621.75 56.59998L121.35 56.59998z" /></clipPath><clipPath id="20"><path d="M121.35 594.35L621.75 594.35L621.75 594.35L621.75 56.59998L621.75 56.59998L121.35 56.59998z" /></clipPath><clipPath id="21"><path d="M121.35 594.35L621.75 594.35L621.75 594.35L621.75 56.59998L621.75 56.59998L121.35 56.59998z" /></clipPath><clipPath id="22"><path d="M121.35 594.35L621.75 594.35L621.75 594.35L621.75 56.59998L621.75 56.59998L121.35 56.59998z" /></clipPath><clipPath id="23"><path d="M121.35 594.35L621.75 594.35L621.75 594.35L621.75 56.59998L621.75 56.59998L121.35 56.59998z" /></clipPath><clipPath id="24"><path d="M121.35 594.35L621.75 594.35L621.75 594.35L621.75 56.59998L621.75 56.59998L121.35 56.59998z" /></clipPath><clipPath id="25"><path d="M121.35 594.35L621.75 594.35L621.75 594.35L621.75 56.59998L621.75 56.59998L121.35 56.59998z" /></clipPath><clipPath id="26"><path d="M121.35 594.35L621.75 594.35L621.75 594.35L621.75 56.59998L621.75 56.59998L121.35 56.59998z" /></clipPath><clipPath id="27"><path d="M121.35 594.35L621.75 594.35L621.75 594.35L621.75 56.59998L621.75 56.59998L121.35 56.59998z" /></clipPath><clipPath id="28"><path d="M121.35 594.35L621.75 594.35L621.75 594.35L621.75 56.59998L621.75 56.59998L121.35 56.59998z" /></clipPath><clipPath id="29"><path d="M121.35 594.35L621.75 594.35L621.75 594.35L621.75 56.59998L621.75 56.59998L121.35 56.59998z" /></clipPath><clipPath id="30"><path d="M121.35 594.35L621.75 594.35L621.75 594.35L621.75 56.59998L621.75 56.59998L121.35 56.59998z" /></clipPath><clipPath id="31"><path d="M121.35 594.35L621.75 594.35L621.75 594.35L621.75 56.59998L621.75 56.59998L121.35 56.59998z" /></clipPath><clipPath id="32"><path d="M121.35 594.35L621.75 594.35L621.75 594.35L621.75 56.59998L621.75 56.59998L121.35 56.59998z" /></clipPath><clipPath id="33"><path d="M121.35 594.35L621.75 594.35L621.75 594.35L621.75 56.59998L621.75 56.59998L121.35 56.59998z" /></clipPath><clipPath id="34"><path d="M121.35 594.35L621.75 594.35L621.75 594.35L621.75 56.59998L621.75 56.59998L121.35 56.59998z" /></clipPath><clipPath id="35"><path d="M121.35 594.35L621.75 594.35L621.75 594.35L621.75 56.59998L621.75 56.59998L121.35 56.59998z" /></clipPath><clipPath id="36"><path d="M121.35 594.35L621.75 594.35L621.75 594.35L621.75 56.59998L621.75 56.59998L121.35 56.59998z" /></clipPath><clipPath id="37"><path d="M121.35 594.35L621.75 594.35L621.75 594.35L621.75 56.59998L621.75 56.59998L121.35 56.59998z" /></clipPath><clipPath id="38"><path d="M121.35 594.35L621.75 594.35L621.75 594.35L621.75 56.59998L621.75 56.59998L121.35 56.59998z" /></clipPath><clipPath id="39"><path d="M121.35 594.35L621.75 594.35L621.75 594.35L621.75 56.59998L621.75 56.59998L121.35 56.59998z" /></clipPath><clipPath id="40"><path d="M121.35 594.35L621.75 594.35L621.75 594.35L621.75 56.59998L621.75 56.59998L121.35 56.59998z" /></clipPath><clipPath id="41"><path d="M121.35 594.35L621.75 594.35L621.75 594.35L621.75 56.59998L621.75 56.59998L121.35 56.59998z" /></clipPath><clipPath id="42"><path d="M121.35 594.35L621.75 594.35L621.75 594.35L621.75 56.59998L621.75 56.59998L121.35 56.59998z" /></clipPath><clipPath id="43"><path d="M121.35 594.35L621.75 594.35L621.75 594.35L621.75 56.59998L621.75 56.59998L121.35 56.59998z" /></clipPath><clipPath id="44"><path d="M121.35 594.35L621.75 594.35L621.75 594.35L621.75 56.59998L621.75 56.59998L121.35 56.59998z" /></clipPath><clipPath id="45"><path d="M121.35 594.35L621.75 594.35L621.75 594.35L621.75 56.59998L621.75 56.59998L121.35 56.59998z" /></clipPath><clipPath id="46"><path d="M121.35 594.35L621.75 594.35L621.75 594.35L621.75 56.59998L621.75 56.59998L121.35 56.59998z" /></clipPath><clipPath id="47"><path d="M121.35 594.35L621.75 594.35L621.75 594.35L621.75 56.59998L621.75 56.59998L121.35 56.59998z" /></clipPath><clipPath id="48"><path d="M121.35 594.35L621.75 594.35L621.75 594.35L621.75 56.59998L621.75 56.59998L121.35 56.59998z" /></clipPath><clipPath id="49"><path d="M121.35 594.35L621.75 594.35L621.75 594.35L621.75 56.59998L621.75 56.59998L121.35 56.59998z" /></clipPath><clipPath id="50"><path d="M121.35 594.35L621.75 594.35L621.75 594.35L621.75 56.59998L621.75 56.59998L121.35 56.59998z" /></clipPath><clipPath id="51"><path d="M121.35 594.35L621.75 594.35L621.75 594.35L621.75 56.59998L621.75 56.59998L121.35 56.59998z" /></clipPath><clipPath id="52"><path d="M121.35 594.35L621.75 594.35L621.75 594.35L621.75 56.59998L621.75 56.59998L121.35 56.59998z" /></clipPath><clipPath id="53"><path d="M121.35 594.35L621.75 594.35L621.75 594.35L621.75 56.59998L621.75 56.59998L121.35 56.59998z" /></clipPath><clipPath id="54"><path d="M121.35 594.35L621.75 594.35L621.75 594.35L621.75 56.59998L621.75 56.59998L121.35 56.59998z" /></clipPath><clipPath id="55"><path d="M121.35 594.35L621.75 594.35L621.75 594.35L621.75 56.59998L621.75 56.59998L121.35 56.59998z" /></clipPath><clipPath id="56"><path d="M121.35 594.35L621.75 594.35L621.75 594.35L621.75 56.59998L621.75 56.59998L121.35 56.59998z" /></clipPath><clipPath id="57"><path d="M121.35 594.35L621.75 594.35L621.75 594.35L621.75 56.59998L621.75 56.59998L121.35 56.59998z" /></clipPath><clipPath id="58"><path d="M121.35 594.35L621.75 594.35L621.75 594.35L621.75 56.59998L621.75 56.59998L121.35 56.59998z" /></clipPath><clipPath id="59"><path d="M121.35 594.35L621.75 594.35L621.75 594.35L621.75 56.59998L621.75 56.59998L121.35 56.59998z" /></clipPath><clipPath id="60"><path d="M121.35 594.35L621.75 594.35L621.75 594.35L621.75 56.59998L621.75 56.59998L121.35 56.59998z" /></clipPath><clipPath id="61"><path d="M121.35 594.35L621.75 594.35L621.75 594.35L621.75 56.59998L621.75 56.59998L121.35 56.59998z" /></clipPath><clipPath id="62"><path d="M121.35 594.35L621.75 594.35L621.75 594.35L621.75 56.59998L621.75 56.59998L121.35 56.59998z" /></clipPath><clipPath id="63"><path d="M121.35 594.35L621.75 594.35L621.75 594.35L621.75 56.59998L621.75 56.59998L121.35 56.59998z" /></clipPath></defs></svg>